<svg id="color" enable-background="new 0 0 24 24" height="512" viewBox="0 0 24 24" width="512" xmlns="http://www.w3.org/2000/svg"><path d="m16 22h-2v-2h-4v2h-2c-.553 0-1 .447-1 1s.447 1 1 1h8c.553 0 1-.447 1-1s-.447-1-1-1z" fill="#90a4ae"/><path d="m22.25 4h-20.5c-.965 0-1.75.785-1.75 1.75v12.5c0 .965.785 1.75 1.75 1.75h20.5c.965 0 1.75-.785 1.75-1.75v-12.5c0-.965-.785-1.75-1.75-1.75z" fill="#607d8b"/><path d="m22 18h-20v-12h20z" fill="#fff"/><path d="m12 20h-2v2h-2c-.553 0-1 .447-1 1s.447 1 1 1h4z" fill="#7d8f97"/><path d="m12 4h-10.25c-.965 0-1.75.785-1.75 1.75v12.5c0 .965.785 1.75 1.75 1.75h10.25v-2h-10v-12h10z" fill="#546d79"/><path d="m12 6h-10v12h10z" fill="#dedede"/><g fill="#2196f3"><path d="m7.75 6c-.414 0-.75-.336-.75-.75v-4.5c0-.414.336-.75.75-.75s.75.336.75.75v4.5c0 .414-.336.75-.75.75z"/><path d="m16.25 6c-.414 0-.75-.336-.75-.75v-4.5c0-.414.336-.75.75-.75s.75.336.75.75v4.5c0 .414-.336.75-.75.75z"/><path d="m16.25 14c-.414 0-.75-.336-.75-.75v-4.5c0-.414.336-.75.75-.75s.75.336.75.75v4.5c0 .414-.336.75-.75.75z"/><path d="m13.25 14c-.414 0-.75-.336-.75-.75v-4.5c0-.414.336-.75.75-.75s.75.336.75.75v4.5c0 .414-.336.75-.75.75z"/><path d="m12.5 6h-1c-.965 0-1.75-.785-1.75-1.75v-2.5c0-.965.785-1.75 1.75-1.75h1c.965 0 1.75.785 1.75 1.75v2.5c0 .965-.785 1.75-1.75 1.75zm-1-4.5c-.138 0-.25.112-.25.25v2.5c0 .138.112.25.25.25h1c.138 0 .25-.112.25-.25v-2.5c0-.138-.112-.25-.25-.25z"/><path d="m9.75 14h-1c-.965 0-1.75-.785-1.75-1.75v-2.5c0-.965.785-1.75 1.75-1.75h1c.965 0 1.75.785 1.75 1.75v2.5c0 .965-.785 1.75-1.75 1.75zm-1-4.5c-.138 0-.25.112-.25.25v2.5c0 .138.112.25.25.25h1c.138 0 .25-.112.25-.25v-2.5c0-.138-.112-.25-.25-.25z"/></g><path d="m17 11h-1.5v2.25c0 .414.336.75.75.75s.75-.336.75-.75z" fill="#1d83d4"/><path d="m14 11h-1.5v2.25c0 .414.336.75.75.75s.75-.336.75-.75z" fill="#1d83d4"/><path d="m11.5 11h-1.5v1.25c0 .138-.112.25-.25.25h-1c-.138 0-.25-.112-.25-.25v-1.25h-1.5v1.25c0 .965.785 1.75 1.75 1.75h1c.965 0 1.75-.785 1.75-1.75z" fill="#1d83d4"/><path d="m8.5 3h-1.5v2.25c0 .414.336.75.75.75s.75-.336.75-.75z" fill="#1d83d4"/><path d="m17 3h-1.5v2.25c0 .414.336.75.75.75s.75-.336.75-.75z" fill="#1d83d4"/><path d="m14.25 3h-1.5v1.25c0 .138-.112.25-.25.25h-1c-.138 0-.25-.112-.25-.25v-1.25h-1.5v1.25c0 .965.785 1.75 1.75 1.75h1c.965 0 1.75-.785 1.75-1.75z" fill="#1d83d4"/></svg>