<svg id="color" enable-background="new 0 0 24 24" height="512" viewBox="0 0 24 24" width="512" xmlns="http://www.w3.org/2000/svg"><path d="m11.25 15c-.185 0-.367-.068-.509-.199l-3.034-2.801h-4.957c-1.517 0-2.75-1.233-2.75-2.75v-6.5c0-1.517 1.233-2.75 2.75-2.75h10.5c1.517 0 2.75 1.233 2.75 2.75v6.5c0 1.517-1.233 2.75-2.75 2.75h-1.25v2.25c0 .298-.177.567-.449.688-.097.041-.199.062-.301.062z" fill="#2196f3"/><path d="m8 0h-5.25c-1.517 0-2.75 1.233-2.75 2.75v6.5c0 1.517 1.233 2.75 2.75 2.75h4.957l.293.27z" fill="#1d83d4"/><path d="m4 19c-1.103 0-2-.897-2-2s.897-2 2-2 2 .897 2 2-.897 2-2 2z" fill="#607d8b"/><path d="m7.25 24h-6.5c-.414 0-.75-.336-.75-.75v-.5c0-1.517 1.233-2.75 2.75-2.75h2.5c1.517 0 2.75 1.233 2.75 2.75v.5c0 .414-.336.75-.75.75z" fill="#607d8b"/><path d="m4 15c-1.103 0-2 .897-2 2s.897 2 2 2z" fill="#546d79"/><path d="m4 20h-1.25c-1.517 0-2.75 1.233-2.75 2.75v.5c0 .414.336.75.75.75h3.25z" fill="#546d79"/><path d="m18.5 17.5c-1.654 0-3-1.346-3-3s1.346-3 3-3 3 1.346 3 3-1.346 3-3 3z" fill="#607d8b"/><path d="m23.25 24h-9.5c-.414 0-.75-.336-.75-.75v-1.5c0-1.517 1.233-2.75 2.75-2.75h5.5c1.517 0 2.75 1.233 2.75 2.75v1.5c0 .414-.336.75-.75.75z" fill="#607d8b"/><path d="m18.5 11.5c-1.654 0-3 1.346-3 3s1.346 3 3 3z" fill="#546d79"/><path d="m18.5 19h-2.75c-1.517 0-2.75 1.233-2.75 2.75v1.5c0 .414.336.75.75.75h4.75z" fill="#546d79"/><g fill="#fafafa"><path d="m11.25 8.5c-.173 0-.347-.059-.488-.181-.314-.27-.351-.743-.081-1.058l1.081-1.261-1.081-1.262c-.27-.314-.233-.788.081-1.058.315-.269.788-.233 1.058.081l1.5 1.75c.241.281.241.695 0 .977l-1.5 1.75c-.149.173-.359.262-.57.262z"/><path d="m4.75 8.5c-.211 0-.421-.089-.569-.262l-1.5-1.75c-.241-.281-.241-.695 0-.977l1.5-1.75c.271-.314.743-.351 1.058-.081.314.27.351.743.081 1.058l-1.082 1.262 1.081 1.262c.27.314.233.788-.081 1.058-.141.12-.315.18-.488.18z"/><path d="m7.667 8.996c-.411-.046-.708-.417-.662-.829l.5-4.5c.045-.411.414-.707.828-.663.411.046.708.417.662.829l-.5 4.5c-.044.399-.4.707-.828.663z"/></g><path d="m13.5 6h-1.739l-1.081 1.262c-.27.314-.233.788.081 1.058.142.121.316.18.489.18.211 0 .421-.089.569-.262l1.5-1.75c.121-.14.181-.314.181-.488z" fill="#dadada"/><path d="m4.238 6h-1.738c0 .174.06.348.181.488l1.5 1.75c.148.173.358.262.569.262.173 0 .347-.06.488-.181.314-.27.351-.743.081-1.058z" fill="#dadada"/><path d="m8.754 6h-1.508l-.241 2.167c-.046.412.251.783.662.829.028.002.055.004.082.004.391 0 .705-.294.746-.667z" fill="#dadada"/></svg>